<svg width="38" height="38" viewBox="0 0 38 38" fill="none" xmlns="http://www.w3.org/2000/svg">
<g id="drag_indicator_24px">
<path id="icon/action/drag_indicator_24px" fill-rule="evenodd" clip-rule="evenodd" d="M11.0833 9.49999C11.0833 7.75833 12.5083 6.33333 14.2499 6.33333C15.9916 6.33333 17.4166 7.75833 17.4166 9.49999C17.4166 11.2417 15.9916 12.6667 14.2499 12.6667C12.5083 12.6667 11.0833 11.2417 11.0833 9.49999ZM11.0833 19C11.0833 17.2583 12.5083 15.8333 14.2499 15.8333C15.9916 15.8333 17.4166 17.2583 17.4166 19C17.4166 20.7417 15.9916 22.1667 14.2499 22.1667C12.5083 22.1667 11.0833 20.7417 11.0833 19ZM23.7499 12.6667C25.4916 12.6667 26.9166 11.2417 26.9166 9.49999C26.9166 7.75833 25.4916 6.33333 23.7499 6.33333C22.0083 6.33333 20.5833 7.75833 20.5833 9.49999C20.5833 11.2417 22.0083 12.6667 23.7499 12.6667ZM20.5833 19C20.5833 17.2583 22.0083 15.8333 23.7499 15.8333C25.4916 15.8333 26.9166 17.2583 26.9166 19C26.9166 20.7417 25.4916 22.1667 23.7499 22.1667C22.0083 22.1667 20.5833 20.7417 20.5833 19Z" fill="black" fill-opacity="0.54"/>
</g>
</svg>
